<svg width="16" height="16" viewBox="0 0 16 16" fill="none" xmlns="http://www.w3.org/2000/svg">
<path d="M6.29557 8.28904C6.58187 8.67179 6.94714 8.98849 7.36661 9.21767C7.78607 9.44684 8.24991 9.58312 8.72667 9.61726C9.20344 9.65141 9.68196 9.58262 10.1298 9.41556C10.5776 9.2485 10.9843 8.98709 11.3222 8.64904L13.3222 6.64904C13.9294 6.02037 14.2654 5.17836 14.2578 4.30437C14.2502 3.43038 13.8997 2.59434 13.2816 1.97631C12.6636 1.35828 11.8276 1.00772 10.9536 1.00013C10.0796 0.992531 9.23758 1.32851 8.60891 1.93571L7.46224 3.07571M8.96237 6.95572C8.67607 6.57296 8.3108 6.25626 7.89134 6.02709C7.47188 5.79792 7.00803 5.66164 6.53127 5.62749C6.05451 5.59335 5.57598 5.66214 5.12814 5.8292C4.6803 5.99625 4.27363 6.25767 3.93571 6.59572L1.93571 8.59572C1.32851 9.22439 0.992531 10.0664 1.00013 10.9404C1.00772 11.8144 1.35828 12.6504 1.97631 13.2684C2.59434 13.8865 3.43038 14.237 4.30437 14.2446C5.17836 14.2522 6.02037 13.9162 6.64904 13.309L7.78904 12.169" stroke="#506466" stroke-width="2" stroke-linecap="round" stroke-linejoin="round"/>
</svg>
